<svg width="1920" height="750" version="1.1" viewBox="0 0 508 198.44" xmlns="http://www.w3.org/2000/svg">
 <rect width="508" height="198.44" rx="13.229" ry="13.229" fill="#ffc251" stroke-width=".55122"/>
 <g stroke-width=".66146" aria-label="Procesní aplikace">
  <path d="m88.97 77.016-2.8194-0.5334v-2.667h6.2103q0.6096 0 2.3622-0.0762 2.2098-0.1524 4.0005-0.1524 4.1148 0 6.477 0.9906t3.3528 2.8575q0.9906 1.8288 0.9906 4.6482 0 4.8768-2.9718 7.5819t-8.4582 2.7051q-1.7145 0-2.6289-0.1143v6.9342l5.0292 0.4191v2.5146h-14.478v-2.5146l2.9337-0.381zm6.477 12.611q0.762 0.1905 2.5146 0.1905 4.953 0 4.953-7.5819 0-3.1623-1.2573-4.6101-1.2192-1.4859-3.6957-1.4859-1.0668 0-1.6764 0.1143-0.6096 0.0762-0.8382 0.1143z"/>
  <path d="m111.79 99.609 2.3241-0.3429v-14.326l-2.2479-0.6858v-2.9718l6.3246-0.8382h0.1143l1.0668 0.8001v0.9144l-0.1143 3.1623h0.1143q0.2667-0.8763 1.2192-2.0193 0.9525-1.1811 2.4003-2.0193 1.4859-0.8763 3.2004-0.8763 0.9906 0 1.524 0.2667v6.6294q-0.6096-0.4572-1.3335-0.7239-0.6858-0.2667-1.7907-0.2667-1.3716 0-2.4765 0.381-1.1049 0.3429-1.7526 0.8001v11.773l4.191 0.381v2.4765h-12.764z"/>
  <path d="m130.16 91.646q0-3.6576 1.4478-6.1722 1.4478-2.5527 3.8862-3.81 2.4765-1.2573 5.4102-1.2573 4.8006 0 7.5057 2.8956 2.7432 2.8575 2.7432 8.001 0 3.7719-1.4478 6.2865-1.4478 2.5146-3.8862 3.7338t-5.4483 1.2192q-4.7625 0-7.5057-2.8575-2.7051-2.8956-2.7051-8.0391zm10.592 8.2296q1.8288 0 2.7051-1.9431 0.9144-1.9812 0.9144-6.1722 0-4.4577-0.8763-6.5532-0.8382-2.1336-2.8575-2.1336-3.7338 0-3.7338 8.1153 0 4.4196 0.9144 6.5532 0.9144 2.1336 2.9337 2.1336z"/>
  <path d="m154.08 91.684q0-3.3909 1.3716-5.9436t3.8481-3.9243q2.4765-1.4097 5.715-1.4097 1.6002 0 2.7432 0.2286 1.1811 0.1905 2.4003 0.5715 1.1049 0.3048 1.3716 0.3429l-0.2667 6.8961h-3.8481l-0.9906-4.3815q-0.1143-0.4953-0.6477-0.6858-0.4953-0.2286-1.2192-0.2286-1.7907 0-2.8194 1.7526-0.9906 1.7526-0.9906 5.8293 0 3.8862 1.2573 5.9817 1.2954 2.0574 3.4671 2.0574 2.8194 0 5.1816-1.4478l1.0287 2.2479q-0.9144 1.0287-3.0099 2.0193-2.0955 0.9525-4.6482 0.9525-4.9911 0-7.4676-2.9337-2.4765-2.9718-2.4765-7.9248z"/>
  <path d="m184.26 102.54q-5.2197 0-7.7343-2.9337-2.5146-2.9718-2.5146-8.0772 0-3.4671 1.2954-5.9817t3.6195-3.81q2.3622-1.3335 5.5245-1.3335 4.0005 0 6.096 2.0193 2.1336 2.0193 2.2098 5.715 0 2.4384-0.3429 3.9243h-11.925q0.1905 3.2385 1.5621 4.953 1.4097 1.6764 3.9243 1.6764 1.4097 0 2.9337-0.4572 1.5621-0.4953 2.5146-1.1049l1.0668 2.3241q-0.9906 1.1049-3.3909 2.0955-2.3622 0.9906-4.8387 0.9906zm2.4384-12.992 0.0381-1.6002q0-2.4003-0.6477-3.6576t-2.2098-1.2573q-1.6002 0-2.4765 1.4097-0.8763 1.3716-0.9525 5.1054z"/>
  <path d="m200.3 98.961q0.2667 0.4191 1.2192 0.762 0.9906 0.3429 1.9812 0.3429 1.5621 0 2.3622-0.6477 0.8382-0.6858 0.8382-1.7526 0-1.143-1.0668-1.8669-1.0668-0.762-3.5052-1.8288l-1.4478-0.6477q-2.4765-1.1049-3.7338-2.667-1.2192-1.6002-1.2192-4.0386 0-1.7526 1.0287-3.1242 1.0287-1.4097 2.9718-2.2098t4.572-0.8001q1.8288 0 3.1623 0.2286t2.7051 0.5715q0.9144 0.2667 1.3716 0.3048v5.1816h-3.3909l-0.9906-2.9337q-0.1905-0.3429-0.9144-0.6096-0.7239-0.3048-1.6383-0.3048-1.4478 0-2.286 0.6477-0.8382 0.6096-0.8382 1.6764 0 1.2192 0.9525 1.9431 0.9525 0.6858 3.048 1.6383l0.8001 0.3429q3.0861 1.2954 4.8387 2.8194 1.7526 1.4859 1.7526 4.1148 0 2.8194-2.2479 4.6482-2.2479 1.7907-6.6294 1.7907-2.0193 0-3.5814-0.3429-1.5621-0.3048-3.429-0.8382l-1.2573-0.3429v-5.0673h3.6195z"/>
  <path d="m217.79 84.94-2.2479-0.6858v-2.9718l6.9342-0.8382h0.1143l0.9906 0.8001v1.4097l-0.0381 0.8763q1.3335-1.2573 3.3909-2.1336t4.3053-0.8763q2.286 0 3.5814 0.8382 1.3335 0.8001 1.905 2.5908 0.6096 1.7907 0.6096 4.8768v10.439l2.1336 0.3048v2.5527h-10.363v-2.5146l1.8669-0.3429v-10.401q0-1.8288-0.2667-2.8194-0.2286-1.0287-0.8382-1.4859t-1.7526-0.4572q-1.7526 0-3.9624 1.6383v13.525l2.0955 0.3429v2.5146h-10.554v-2.5146l2.0955-0.3429z"/>
  <path d="m244.3 84.94-2.5527-0.7239v-2.8575l7.62-0.9144h0.0762l1.1811 0.8001v18.021l2.286 0.3429v2.5146h-10.973v-2.5146l2.3622-0.3429zm-1.1049-8.9535 6.6294-8.1534 3.6576 3.2766q-0.9906 1.6764-3.6576 3.8862-2.667 2.1717-4.4196 2.8575z"/>
  <path d="m264.04 96.028q0-3.3528 3.3909-5.1435 3.429-1.7907 8.9916-1.8288v-0.762q0-1.3716-0.3048-2.1717t-1.1049-1.1811q-0.8001-0.4191-2.3622-0.4191-1.8669 0-3.3528 0.4572-1.4478 0.4191-3.048 1.143l-1.2954-2.7432q0.6096-0.4953 1.9812-1.1811 1.3716-0.7239 3.2766-1.2192 1.9431-0.5334 4.0386-0.5334 3.048 0 4.7625 0.8001 1.7526 0.8001 2.4765 2.4765 0.762 1.6764 0.762 4.572v11.316h1.9812v2.4003q-0.8763 0.1905-2.4384 0.381t-2.667 0.1905q-1.4478 0-1.9431-0.4191-0.4572-0.4191-0.4572-1.6764v-0.8763q-0.9525 1.143-2.5527 2.0574-1.6002 0.8763-3.6957 0.8763-1.7907 0-3.2766-0.762-1.4478-0.8001-2.3241-2.2479-0.8382-1.4859-0.8382-3.5052zm9.4107 3.0099q0.6858 0 1.524-0.381 0.8382-0.4191 1.4478-0.9906v-6.0579q-2.9718 0-4.4196 1.0668-1.4097 1.0668-1.4097 2.7432 0 1.7145 0.762 2.667 0.762 0.9525 2.0955 0.9525z"/>
  <path d="m307.78 90.846q0 3.1623-1.3335 5.8293-1.2954 2.667-3.8862 4.2672-2.5527 1.6002-6.1722 1.6002-0.6096 0-1.3335-0.1143-0.6858-0.1143-1.0668-0.2667l0.1143 3.0861v3.2385l3.2766 0.4953v2.3622h-11.697v-2.3622l2.3241-0.4953v-23.546l-2.3241-0.6858v-2.9718l6.8199-0.8382h0.0762l1.0287 0.8001v2.0574q0.8763-1.1811 2.4384-2.0193 1.6002-0.8763 3.4671-0.8763 3.6576 0 5.9436 2.5908 2.3241 2.5527 2.3241 7.8486zm-10.516-6.9342q-0.9906 0-1.8669 0.4191-0.8763 0.381-1.2954 0.9525v13.945q0.2667 0.3429 0.9144 0.5715 0.6858 0.2286 1.4859 0.2286 2.1336 0 3.3909-2.0574 1.2954-2.0574 1.2954-6.6675 0-3.7338-1.0668-5.5626t-2.8575-1.8288z"/>
  <path d="m312.65 74.615-2.667-0.4953v-2.3241l7.62-0.9144h0.1143l1.1049 0.8001v27.584l2.4765 0.3429v2.5146h-11.087v-2.5146l2.4384-0.3429z"/>
  <path d="m328.43 77.663q-1.4859 0-2.4003-0.8763t-0.9144-2.2479q0-1.6002 0.9906-2.6289 1.0287-1.0287 2.7432-1.0287t2.6289 0.8763q0.9144 0.8763 0.9144 2.2479 0 1.6383-1.0287 2.667-1.0287 0.9906-2.8956 0.9906zm-2.3241 7.2771-2.5527-0.7239v-2.8575l7.62-0.9144h0.0762l1.1811 0.8001v18.021l2.286 0.3429v2.5146h-10.973v-2.5146l2.3622-0.3429z"/>
  <path d="m339.06 74.615-2.5908-0.4953v-2.3241l7.5819-0.9144h0.1143l1.1049 0.8001v17.793l-0.1143 1.8669 7.1628-7.5438-2.8194-0.4191v-2.4003h10.363v2.4003l-3.1242 0.4953-4.1148 3.9243 6.2865 11.468 1.9812 0.3429v2.5146h-10.592v-2.5146l1.7145-0.3429-3.7719-7.5438-3.0861 3.2004 0.0762 1.9431v2.4003l2.2098 0.3429v2.5146h-10.478v-2.5146l2.0955-0.3429z"/>
  <path d="m361.46 96.028q0-3.3528 3.3909-5.1435 3.429-1.7907 8.9916-1.8288v-0.762q0-1.3716-0.3048-2.1717t-1.1049-1.1811q-0.8001-0.4191-2.3622-0.4191-1.8669 0-3.3528 0.4572-1.4478 0.4191-3.048 1.143l-1.2954-2.7432q0.6096-0.4953 1.9812-1.1811 1.3716-0.7239 3.2766-1.2192 1.9431-0.5334 4.0386-0.5334 3.048 0 4.7625 0.8001 1.7526 0.8001 2.4765 2.4765 0.762 1.6764 0.762 4.572v11.316h1.9812v2.4003q-0.8763 0.1905-2.4384 0.381t-2.667 0.1905q-1.4478 0-1.9431-0.4191-0.4572-0.4191-0.4572-1.6764v-0.8763q-0.9525 1.143-2.5527 2.0574-1.6002 0.8763-3.6957 0.8763-1.7907 0-3.2766-0.762-1.4478-0.8001-2.3241-2.2479-0.8382-1.4859-0.8382-3.5052zm9.4107 3.0099q0.6858 0 1.524-0.381 0.8382-0.4191 1.4478-0.9906v-6.0579q-2.9718 0-4.4196 1.0668-1.4097 1.0668-1.4097 2.7432 0 1.7145 0.762 2.667 0.762 0.9525 2.0955 0.9525z"/>
  <path d="m383.29 91.684q0-3.3909 1.3716-5.9436t3.8481-3.9243q2.4765-1.4097 5.715-1.4097 1.6002 0 2.7432 0.2286 1.1811 0.1905 2.4003 0.5715 1.1049 0.3048 1.3716 0.3429l-0.2667 6.8961h-3.8481l-0.9906-4.3815q-0.1143-0.4953-0.6477-0.6858-0.4953-0.2286-1.2192-0.2286-1.7907 0-2.8194 1.7526-0.9906 1.7526-0.9906 5.8293 0 3.8862 1.2573 5.9817 1.2954 2.0574 3.4671 2.0574 2.8194 0 5.1816-1.4478l1.0287 2.2479q-0.9144 1.0287-3.0099 2.0193-2.0955 0.9525-4.6482 0.9525-4.9911 0-7.4676-2.9337-2.4765-2.9718-2.4765-7.9248z"/>
  <path d="m413.47 102.54q-5.2197 0-7.7343-2.9337-2.5146-2.9718-2.5146-8.0772 0-3.4671 1.2954-5.9817t3.6195-3.81q2.3622-1.3335 5.5245-1.3335 4.0005 0 6.096 2.0193 2.1336 2.0193 2.2098 5.715 0 2.4384-0.3429 3.9243h-11.925q0.1905 3.2385 1.5621 4.953 1.4097 1.6764 3.9243 1.6764 1.4097 0 2.9337-0.4572 1.5621-0.4953 2.5146-1.1049l1.0668 2.3241q-0.9906 1.1049-3.3909 2.0955-2.3622 0.9906-4.8387 0.9906zm2.4384-12.992 0.0381-1.6002q0-2.4003-0.6477-3.6576t-2.2098-1.2573q-1.6002 0-2.4765 1.4097-0.8763 1.3716-0.9525 5.1054z"/>
 </g>
 <g stroke-width=".67973" aria-label="PŘIJÍMACÍ ŘÍZENÍ NA DVOP WEBOVÝ BACKEND NA SSPŠG PRO ŠKOLNÍ ROK 2023/2024">
  <path d="m76.235 123.75-0.61176-0.10604v-0.50572h1.2317q0.17129 0 0.53019-0.0163 0.47309-0.0326 0.85646-0.0326 0.84831 0 1.3377 0.21207 0.49756 0.20392 0.70148 0.59545 0.21208 0.38337 0.21208 0.97881 0 1.0278-0.64439 1.5987-0.63623 0.57098-1.77 0.57098-0.44862 0-0.64439-0.0245v1.6069l1.093 0.0816v0.4894h-2.9364v-0.4894l0.64439-0.0816zm1.1909 2.7488q0.18761 0.0408 0.63623 0.0408 0.5465 0 0.87278-0.37521 0.33443-0.38337 0.33443-1.2643 0-0.68517-0.3018-0.99512-0.29364-0.31812-0.9054-0.31812-0.22839 0-0.47309 0.0326-0.1142 0.0163-0.16314 0.0163z"/>
  <path d="m80.974 128.71 0.64439-0.0816v-4.8778l-0.61176-0.1142v-0.49756h1.1827q0.15498 0 0.34258-8e-3t0.28549-0.0163q0.42415-0.0326 0.70148-0.0326 0.84015 0 1.3459 0.17129 0.50572 0.1713 0.73411 0.52204t0.22839 0.92171q0 0.56282-0.3018 1.0441t-0.87278 0.6607q0.32627 0.13867 0.57913 0.50572 0.25286 0.36706 0.53835 0.95435 0.20392 0.39968 0.30996 0.57913 0.1142 0.17129 0.22023 0.19576l0.26917 0.0816v0.48125h-1.3867q-0.13051 0-0.27733-0.26101-0.13867-0.26918-0.36706-0.84015-0.26917-0.66886-0.46494-1.0441-0.19576-0.37522-0.416-0.46494h-0.84015v2.0392l0.75042 0.0816v0.4894h-2.5939zm2.5939-2.6183q0.46494 0 0.72596-0.33443 0.26102-0.33443 0.26102-1.0033 0-0.59544-0.26102-0.88093-0.25286-0.28549-0.88093-0.28549-0.22839 0-0.39153 0.0245-0.15498 0.0163-0.20392 0.0163v2.447q0.09788 0.0163 0.47309 0.0163zm0.04078-4.16 1.0685-0.75042 0.39153 0.31811-1.093 1.1256h-0.73411l-1.1093-1.1256 0.40784-0.31811z"/>
  <path d="m87.606 123.75-0.69333-0.10604v-0.50572h2.6102v0.50572l-0.7178 0.10604v4.8778l0.7178 0.0897v0.48125h-2.6102v-0.4894l0.69333-0.0816z"/>
  <path d="m89.783 130.31q0.32627-0.10604 0.6036-0.37522 0.28549-0.26917 0.416-0.67701 0.08972-0.27733 0.13051-0.6607 0.04078-0.39153 0.04078-1.093v-3.744l-0.73411-0.11419v-0.50572h2.6102v0.50572l-0.68517 0.10604v3.2056q0 0.87277-0.02447 1.354-0.01631 0.4731-0.08157 0.75858-0.17129 0.6607-0.70148 1.093-0.53019 0.44047-1.3051 0.57098z"/>
  <path d="m94.147 123.75-0.69333-0.10604v-0.50572h2.6102v0.50572l-0.7178 0.10604v4.8778l0.7178 0.0897v0.48125h-2.6102v-0.4894l0.69333-0.0816zm-0.04894-1.3459 1.0604-1.2154 0.82384 0.51388q-0.27733 0.31812-0.68517 0.61176-0.39968 0.28549-0.68517 0.39968z"/>
  <path d="m97.736 123.75-0.88093-0.10604v-0.50572h2.5449l0.97065 3.5074 0.22839 0.95434 0.19577-0.95434 0.9625-3.5074h2.5204v0.50572l-0.88909 0.10604 0.65254 4.8696 0.6607 0.0897v0.4894h-2.602v-0.4894l0.7178-0.0816-0.3589-3.5727-0.15498-1.4927-0.3018 1.2562-1.1827 4.1273h-0.86462l-1.2072-3.9153-0.416-1.4682-0.12235 1.4927-0.30996 3.5727 0.82384 0.0816v0.4894h-2.2676v-0.4894l0.68517-0.0816z"/>
  <path d="m106.95 123.11h1.248l1.8842 5.5222 0.4731 0.0816v0.4894h-2.4063v-0.4894l0.61176-0.0816-0.31811-1.0604h-2.1126l-0.31812 1.0685 0.6607 0.0734v0.4894h-2.08l-8e-3 -0.4894 0.4894-0.0816zm0.56282 1.3785-0.14682-0.63623-0.15498 0.64438-0.72595 2.5041h1.7945z"/>
  <path d="m113.54 129.29q-1.3867 0-2.1208-0.82384-0.73411-0.83199-0.73411-2.2676 0-0.94618 0.38337-1.6477 0.39153-0.70964 1.0685-1.093t1.5335-0.38337q0.3589 0 0.69332 0.0489 0.33443 0.0408 0.79121 0.1142 0.34259 0.0571 0.37522 0.0571l-0.0897 1.6803h-0.75042l-0.25286-1.1664q-0.0897-0.0897-0.30996-0.14682-0.22024-0.0571-0.56282-0.0571-0.69333 0-1.1175 0.64439-0.416 0.63623-0.416 1.8516 0 1.1746 0.39969 1.9168 0.39968 0.74227 1.1664 0.74227 0.36705 0 0.56282-0.0653 0.20391-0.0734 0.34258-0.20392l0.3589-0.84015 0.68517 0.0653-0.16314 1.2643q-0.17129 0.0163-0.34258 0.0652-0.16314 0.0408-0.20392 0.0489-0.32627 0.0897-0.61176 0.13867-0.27733 0.0571-0.68517 0.0571z"/>
  <path d="m116.89 123.75-0.69333-0.10604v-0.50572h2.6102v0.50572l-0.7178 0.10604v4.8778l0.7178 0.0897v0.48125h-2.6102v-0.4894l0.69333-0.0816zm-0.0489-1.3459 1.0604-1.2154 0.82384 0.51388q-0.27733 0.31812-0.68517 0.61176-0.39968 0.28549-0.68517 0.39968z"/>
  <path d="m121.42 128.71 0.64438-0.0816v-4.8778l-0.61175-0.1142v-0.49756h1.1827q0.15498 0 0.34258-8e-3 0.18761-8e-3 0.28549-0.0163 0.42416-0.0326 0.70149-0.0326 0.84015 0 1.3459 0.17129 0.50572 0.1713 0.73411 0.52204t0.22839 0.92171q0 0.56282-0.3018 1.0441t-0.87278 0.6607q0.32627 0.13867 0.57913 0.50572 0.25286 0.36706 0.53835 0.95435 0.20392 0.39968 0.30996 0.57913 0.11419 0.17129 0.22023 0.19576l0.26918 0.0816v0.48125h-1.3867q-0.13051 0-0.27733-0.26101-0.13866-0.26918-0.36705-0.84015-0.26918-0.66886-0.46494-1.0441-0.19576-0.37522-0.416-0.46494h-0.84015v2.0392l0.75043 0.0816v0.4894h-2.5939zm2.5939-2.6183q0.46493 0 0.72595-0.33443t0.26102-1.0033q0-0.59544-0.26102-0.88093-0.25286-0.28549-0.88093-0.28549-0.22839 0-0.39153 0.0245-0.15498 0.0163-0.20392 0.0163v2.447q0.0979 0.0163 0.4731 0.0163zm0.0408-4.16 1.0685-0.75042 0.39153 0.31811-1.093 1.1256h-0.73411l-1.1093-1.1256 0.40784-0.31811z"/>
  <path d="m128.06 123.75-0.69332-0.10604v-0.50572h2.6102v0.50572l-0.7178 0.10604v4.8778l0.7178 0.0897v0.48125h-2.6102v-0.4894l0.69332-0.0816zm-0.0489-1.3459 1.0604-1.2154 0.82384 0.51388q-0.27733 0.31812-0.68517 0.61176-0.39968 0.28549-0.68517 0.39968z"/>
  <path d="m134.02 123.6-2.1208 0.11419-0.44046 1.1012-0.60361-0.0816 0.18761-1.6069h4.1355l0.19576 0.43231-2.9528 4.5841-0.56282 0.56282 2.5123-0.16314 0.45678-1.2643 0.61992 0.12235-0.18761 1.8026h-4.4862l-0.25287-0.43231 3.018-4.6086z"/>
  <path d="m136.64 123.75-0.65254-0.10604v-0.50572h4.3476l0.10604 1.3703h-0.57098l-0.26917-0.80752-1.7619-0.0734v2.1942l1.1338-0.0245 0.13051-0.66886h0.52204v1.974h-0.52204l-0.13051-0.70149-1.1338-0.0245v2.3002l1.9739-0.0979 0.4731-1.0441 0.61176 0.17129-0.21208 1.4927h-4.6902v-0.4894l0.64438-0.0816z"/>
  <path d="m142 123.75-0.64439-0.10604v-0.50572h1.8516l2.4307 3.6706 0.45678 0.92988v-3.9887l-0.70149-0.10604v-0.50572h2.0229v0.50572l-0.62808 0.10604v5.4487h-0.98697l-2.5368-3.8582-0.57097-1.0767v4.3639l0.82383 0.0816v0.4894h-2.1616v-0.4894l0.64439-0.0816z"/>
  <path d="m148.64 123.75-0.69333-0.10604v-0.50572h2.6102v0.50572l-0.7178 0.10604v4.8778l0.7178 0.0897v0.48125h-2.6102v-0.4894l0.69333-0.0816zm-0.0489-1.3459 1.0604-1.2154 0.82383 0.51388q-0.27733 0.31812-0.68517 0.61176-0.39968 0.28549-0.68517 0.39968z"/>
  <path d="m153.83 123.75-0.64439-0.10604v-0.50572h1.8516l2.4307 3.6706 0.45678 0.92988v-3.9887l-0.70148-0.10604v-0.50572h2.0229v0.50572l-0.62807 0.10604v5.4487h-0.98697l-2.5368-3.8582-0.57098-1.0767v4.3639l0.82384 0.0816v0.4894h-2.1616v-0.4894l0.64439-0.0816z"/>
  <path d="m161.64 123.11h1.248l1.8842 5.5222 0.4731 0.0816v0.4894h-2.4063v-0.4894l0.61176-0.0816-0.31811-1.0604h-2.1126l-0.31811 1.0685 0.6607 0.0734v0.4894h-2.08l-8e-3 -0.4894 0.4894-0.0816zm0.56281 1.3785-0.14682-0.63623-0.15498 0.64438-0.72595 2.5041h1.7945z"/>
  <path d="m168.03 123.75-0.61176-0.10604v-0.50572h1.1909q0.26918 0 0.72596-0.0326 0.10604-8e-3 0.31811-0.0163 0.22024-8e-3 0.39153-8e-3 1.5008 0 2.2431 0.75042 0.75042 0.75043 0.75042 2.1289 0 0.9625-0.37521 1.7129-0.36706 0.75043-1.0522 1.1746-0.68517 0.416-1.5987 0.416-0.23655 0-0.74227-0.0326-0.47309-0.0326-0.64438-0.0326h-1.2398v-0.4894l0.64438-0.0816zm1.1827 4.9022q0.27733 0.0734 0.77489 0.0734 0.81568-0.0163 1.2806-0.65254 0.46493-0.64439 0.46493-1.925 0-1.2154-0.45678-1.8761-0.45678-0.66886-1.4193-0.66886-0.20392 0-0.39152 0.0245-0.17945 0.0245-0.25286 0.0326z"/>
  <path d="m173.13 123.14h2.4797v0.50572l-0.69333 0.10604 1.2154 3.6542 0.23655 0.82383 0.20392-0.83199 1.142-3.6461-0.64439-0.10604v-0.50572h1.9739v0.50572l-0.52203 0.10604-1.8761 5.5058h-0.97066l-2.0555-5.5058-0.48941-0.10604z"/>
  <path d="m181.78 129.29q-1.3296 0-1.9903-0.832-0.6607-0.83199-0.6607-2.2676 0-0.93803 0.34259-1.6477 0.35074-0.70965 0.97881-1.093 0.62807-0.38337 1.4438-0.38337 1.3459 0 2.0147 0.79936 0.67701 0.79121 0.67701 2.2186 0 0.94619-0.35889 1.6803-0.35075 0.72595-0.98698 1.1256-0.63623 0.39969-1.4601 0.39969zm0.0816-5.7261q-0.66886 0-1.0441 0.6607-0.37522 0.6607-0.37522 1.9576 0 1.2806 0.3589 1.9495 0.36706 0.6607 1.0441 0.6607 0.6607 0 1.0359-0.69332 0.37522-0.70149 0.37522-2.0147 0-1.2725-0.3589-1.8924-0.3589-0.62807-1.0359-0.62807z"/>
  <path d="m185.79 123.75-0.61175-0.10604v-0.50572h1.2317q0.17129 0 0.53019-0.0163 0.4731-0.0326 0.85646-0.0326 0.84831 0 1.3377 0.21207 0.49756 0.20392 0.70148 0.59545 0.21208 0.38337 0.21208 0.97881 0 1.0278-0.64439 1.5987-0.63623 0.57098-1.77 0.57098-0.44862 0-0.64439-0.0245v1.6069l1.093 0.0816v0.4894h-2.9364v-0.4894l0.64438-0.0816zm1.1909 2.7488q0.1876 0.0408 0.63623 0.0408 0.5465 0 0.87277-0.37521 0.33443-0.38337 0.33443-1.2643 0-0.68517-0.3018-0.99512-0.29365-0.31812-0.9054-0.31812-0.22839 0-0.4731 0.0326-0.11419 0.0163-0.16313 0.0163z"/>
  <path d="m192 123.14h2.447v0.50572l-0.70964 0.10604 1.0278 3.6787 0.1876 0.9054 0.18761-0.9054 0.87278-2.9854-0.22839-0.69332-0.53835-0.10604v-0.50572h2.5531v0.50572l-0.78305 0.10604 1.0196 3.6787 0.22023 0.97881 0.1713-0.97881 0.92987-3.6787-0.73411-0.10604v-0.50572h1.9658v0.50572l-0.52203 0.10604-1.5498 5.4895h-1.0767l-1.1256-3.8092-1.0767 3.8092h-1.0604l-1.6803-5.4814-0.49756-0.11419z"/>
  <path d="m201.4 123.75-0.65254-0.10604v-0.50572h4.3476l0.10604 1.3703h-0.57098l-0.26917-0.80752-1.7619-0.0734v2.1942l1.1338-0.0245 0.1305-0.66886h0.52204v1.974h-0.52204l-0.1305-0.70149-1.1338-0.0245v2.3002l1.974-0.0979 0.47309-1.0441 0.61176 0.17129-0.21208 1.4927h-4.6902v-0.4894l0.64438-0.0816z"/>
  <path d="m206.74 123.75-0.63623-0.10604v-0.50572h1.2154q0.27733 0 0.7178-0.0326 0.10604-8e-3 0.25286-0.0163 0.14682-8e-3 0.34259-8e-3 1.2317 0 1.7211 0.35074 0.49756 0.34259 0.49756 1.0278 0 0.6036-0.36705 1.0114-0.3589 0.39968-0.94619 0.48941 0.80752-8e-3 1.2643 0.36705 0.46494 0.37521 0.46494 1.0441 0 0.84831-0.59545 1.3622-0.59544 0.51387-1.9902 0.51387-0.36706 0-0.67702-0.0245-0.0816 0-0.27733-0.0163-0.19576-8e-3 -0.39968-8e-3h-1.2317v-0.4894l0.64438-0.0816zm1.1827 2.031q0.0897 8e-3 0.36705 8e-3h0.38337q0.49756 0 0.74227-0.30995 0.2447-0.30996 0.2447-0.87278 0-0.53835-0.25286-0.78305-0.25286-0.24471-0.84015-0.24471-0.15498 0-0.64438 0.0326zm0 2.8793q0.1876 0.0734 0.71779 0.0734 0.69333 0 1.0033-0.32628 0.30996-0.32627 0.30996-0.94618 0-0.59545-0.28549-0.84831-0.27733-0.26102-0.88909-0.26102-0.68517 0-0.85646 0.0163z"/>
  <path d="m214.43 129.29q-1.3296 0-1.9902-0.832-0.6607-0.83199-0.6607-2.2676 0-0.93803 0.34258-1.6477 0.35075-0.70965 0.97882-1.093 0.62807-0.38337 1.4438-0.38337 1.3459 0 2.0147 0.79936 0.67701 0.79121 0.67701 2.2186 0 0.94619-0.3589 1.6803-0.35074 0.72595-0.98697 1.1256-0.63623 0.39969-1.4601 0.39969zm0.0816-5.7261q-0.66885 0-1.0441 0.6607-0.37521 0.6607-0.37521 1.9576 0 1.2806 0.3589 1.9495 0.36706 0.6607 1.0441 0.6607 0.6607 0 1.0359-0.69332 0.37521-0.70149 0.37521-2.0147 0-1.2725-0.3589-1.8924-0.35889-0.62807-1.0359-0.62807z"/>
  <path d="m217.32 123.14h2.4797v0.50572l-0.69332 0.10604 1.2154 3.6542 0.23654 0.82383 0.20392-0.83199 1.142-3.6461-0.64438-0.10604v-0.50572h1.9739v0.50572l-0.52203 0.10604-1.8761 5.5058h-0.97065l-2.0555-5.5058-0.48941-0.10604z"/>
  <path d="m225.15 126.79-1.7456-3.0425-0.46493-0.10604v-0.50572h2.3981v0.50572l-0.57913 0.10604 1.0196 1.9984 0.22839 0.56282 0.23655-0.56282 0.93803-1.9984-0.63623-0.10604v-0.50572h1.9902v0.50572l-0.50572 0.0979-1.6232 3.0425v1.8434l0.88909 0.0816v0.4894h-3.0098v-0.4894l0.86462-0.0816zm0.0489-4.3884 1.0604-1.2154 0.82384 0.51388q-0.27734 0.31812-0.68518 0.61176-0.39968 0.28549-0.68517 0.39968z"/>
  <path d="m231.28 123.75-0.63623-0.10604v-0.50572h1.2154q0.27733 0 0.7178-0.0326 0.10603-8e-3 0.25286-0.0163 0.14682-8e-3 0.34258-8e-3 1.2317 0 1.7211 0.35074 0.49757 0.34259 0.49757 1.0278 0 0.6036-0.36706 1.0114-0.3589 0.39968-0.94619 0.48941 0.80753-8e-3 1.2643 0.36705 0.46493 0.37521 0.46493 1.0441 0 0.84831-0.59544 1.3622-0.59545 0.51387-1.9903 0.51387-0.36705 0-0.67701-0.0245-0.0816 0-0.27733-0.0163-0.19577-8e-3 -0.39969-8e-3h-1.2317v-0.4894l0.64439-0.0816zm1.1827 2.031q0.0897 8e-3 0.36706 8e-3h0.38337q0.49756 0 0.74226-0.30995 0.24471-0.30996 0.24471-0.87278 0-0.53835-0.25286-0.78305-0.25286-0.24471-0.84015-0.24471-0.15498 0-0.64439 0.0326zm0 2.8793q0.18761 0.0734 0.7178 0.0734 0.69333 0 1.0033-0.32628 0.30996-0.32627 0.30996-0.94618 0-0.59545-0.28549-0.84831-0.27733-0.26102-0.88909-0.26102-0.68517 0-0.85646 0.0163z"/>
  <path d="m238.29 123.11h1.248l1.8842 5.5222 0.47309 0.0816v0.4894h-2.4062v-0.4894l0.61176-0.0816-0.31811-1.0604h-2.1126l-0.31812 1.0685 0.6607 0.0734v0.4894h-2.08l-8e-3 -0.4894 0.48941-0.0816zm0.56282 1.3785-0.14682-0.63623-0.15498 0.64438-0.72595 2.5041h1.7945z"/>
  <path d="m244.88 129.29q-1.3866 0-2.1208-0.82384-0.73412-0.83199-0.73412-2.2676 0-0.94618 0.38337-1.6477 0.39153-0.70964 1.0685-1.093 0.67702-0.38337 1.5335-0.38337 0.3589 0 0.69333 0.0489 0.33443 0.0408 0.79121 0.1142 0.34258 0.0571 0.37521 0.0571l-0.0897 1.6803h-0.75042l-0.25286-1.1664q-0.0897-0.0897-0.30996-0.14682-0.22023-0.0571-0.56282-0.0571-0.69333 0-1.1175 0.64439-0.41599 0.63623-0.41599 1.8516 0 1.1746 0.39968 1.9168t1.1664 0.74227q0.36705 0 0.56282-0.0653 0.20392-0.0734 0.34258-0.20392l0.3589-0.84015 0.68517 0.0653-0.16313 1.2643q-0.1713 0.0163-0.34259 0.0652-0.16314 0.0408-0.20392 0.0489-0.32627 0.0897-0.61176 0.13867-0.27733 0.0571-0.68517 0.0571z"/>
  <path d="m251.81 129.2q-0.12235 0-0.31811-0.30996-0.19577-0.31811-0.54651-1.0033-0.3018-0.58729-0.50572-0.94619t-0.39153-0.59544l-0.72595 0.83199v1.4519l0.70148 0.0897v0.48125h-2.5368v-0.4894l0.64439-0.0816v-4.8778l-0.63623-0.10604v-0.50572h2.4552v0.50572l-0.62807 0.10604v2.6591l2.1452-2.6591-0.66886-0.10604v-0.50572h2.2023v0.50572l-0.67701 0.10604-1.5824 1.7782q0.28549 0.26101 0.6036 0.74227 0.31812 0.47309 0.7749 1.2398 0.33443 0.56282 0.50572 0.82383 0.17129 0.25286 0.26102 0.29365l0.38337 0.0897v0.48125z"/>
  <path d="m254.21 123.75-0.65255-0.10604v-0.50572h4.3476l0.10604 1.3703h-0.57097l-0.26918-0.80752-1.7619-0.0734v2.1942l1.1338-0.0245 0.13051-0.66886h0.52203v1.974h-0.52203l-0.13051-0.70149-1.1338-0.0245v2.3002l1.9739-0.0979 0.47309-1.0441 0.61176 0.17129-0.21207 1.4927h-4.6902v-0.4894l0.64439-0.0816z"/>
  <path d="m259.56 123.75-0.64438-0.10604v-0.50572h1.8516l2.4307 3.6706 0.45678 0.92988v-3.9887l-0.70148-0.10604v-0.50572h2.0229v0.50572l-0.62807 0.10604v5.4487h-0.98697l-2.5368-3.8582-0.57097-1.0767v4.3639l0.82383 0.0816v0.4894h-2.1615v-0.4894l0.64438-0.0816z"/>
  <path d="m266.1 123.75-0.61176-0.10604v-0.50572h1.1909q0.26918 0 0.72596-0.0326 0.10604-8e-3 0.31811-0.0163 0.22024-8e-3 0.39153-8e-3 1.5008 0 2.2431 0.75042 0.75042 0.75043 0.75042 2.1289 0 0.9625-0.37521 1.7129-0.36706 0.75043-1.0522 1.1746-0.68517 0.416-1.5987 0.416-0.23655 0-0.74227-0.0326-0.47309-0.0326-0.64438-0.0326h-1.2398v-0.4894l0.64439-0.0816zm1.1827 4.9022q0.27733 0.0734 0.77489 0.0734 0.81568-0.0163 1.2806-0.65254 0.46493-0.64439 0.46493-1.925 0-1.2154-0.45678-1.8761-0.45678-0.66886-1.4193-0.66886-0.20392 0-0.39152 0.0245-0.17945 0.0245-0.25286 0.0326z"/>
  <path d="m274.25 123.75-0.64439-0.10604v-0.50572h1.8516l2.4307 3.6706 0.45678 0.92988v-3.9887l-0.70149-0.10604v-0.50572h2.0229v0.50572l-0.62807 0.10604v5.4487h-0.98698l-2.5368-3.8582-0.57097-1.0767v4.3639l0.82383 0.0816v0.4894h-2.1616v-0.4894l0.64439-0.0816z"/>
  <path d="m282.06 123.11h1.248l1.8842 5.5222 0.47309 0.0816v0.4894h-2.4062v-0.4894l0.61176-0.0816-0.31812-1.0604h-2.1126l-0.31812 1.0685 0.6607 0.0734v0.4894h-2.08l-8e-3 -0.4894 0.48941-0.0816zm0.56282 1.3785-0.14682-0.63623-0.15498 0.64438-0.72596 2.5041h1.7945z"/>
  <path d="m289.91 129.29q-0.44047 0-0.79121-0.0734t-0.78305-0.19577q-0.28549-0.0816-0.38337-0.0897l0.0734-1.509h0.6607l0.17945 1.0522q0.10604 0.11419 0.37521 0.20392 0.27733 0.0897 0.62808 0.0897 0.5465 0 0.81568-0.23654 0.27733-0.24471 0.27733-0.67702 0-0.28549-0.16314-0.48941-0.16314-0.21207-0.44862-0.37521-0.28549-0.17129-0.78305-0.39152-0.67702-0.30996-1.1256-0.73411-0.44047-0.43231-0.44047-1.1664 0-0.45678 0.23655-0.82383 0.23655-0.37521 0.70148-0.58729 0.4731-0.22023 1.1501-0.22023 0.39968 0 0.70148 0.0571 0.30996 0.0571 0.66886 0.15498 0.21208 0.0571 0.31812 0.0734l-0.0489 1.4274h-0.65254l-0.17129-1.0033q-0.0734-0.0734-0.29365-0.13867-0.22023-0.0734-0.4894-0.0734-0.48941 0-0.74227 0.22839-0.2447 0.22023-0.2447 0.59545 0 0.3018 0.17944 0.52203 0.18761 0.22023 0.44863 0.37521 0.26102 0.14683 0.82383 0.42416 0.45678 0.22023 0.78306 0.43231 0.32627 0.21207 0.56281 0.55466 0.23655 0.33443 0.23655 0.79121 0 0.44862-0.22839 0.85646-0.22023 0.40784-0.73411 0.67701-0.50572 0.26918-1.2969 0.26918z"/>
  <path d="m294.83 129.29q-0.44047 0-0.79121-0.0734t-0.78305-0.19577q-0.28549-0.0816-0.38337-0.0897l0.0734-1.509h0.6607l0.17945 1.0522q0.10604 0.11419 0.37521 0.20392 0.27733 0.0897 0.62807 0.0897 0.54651 0 0.81568-0.23654 0.27733-0.24471 0.27733-0.67702 0-0.28549-0.16313-0.48941-0.16314-0.21207-0.44862-0.37521-0.28549-0.17129-0.78306-0.39152-0.67701-0.30996-1.1256-0.73411-0.44047-0.43231-0.44047-1.1664 0-0.45678 0.23655-0.82383 0.23654-0.37521 0.70148-0.58729 0.47309-0.22023 1.1501-0.22023 0.39968 0 0.70148 0.0571 0.30996 0.0571 0.66886 0.15498 0.21208 0.0571 0.31811 0.0734l-0.0489 1.4274h-0.65254l-0.17129-1.0033q-0.0734-0.0734-0.29365-0.13867-0.22023-0.0734-0.4894-0.0734-0.48941 0-0.74227 0.22839-0.24471 0.22023-0.24471 0.59545 0 0.3018 0.17945 0.52203 0.18761 0.22023 0.44863 0.37521 0.26101 0.14683 0.82383 0.42416 0.45678 0.22023 0.78305 0.43231 0.32628 0.21207 0.56282 0.55466 0.23655 0.33443 0.23655 0.79121 0 0.44862-0.22839 0.85646-0.22023 0.40784-0.73411 0.67701-0.50572 0.26918-1.2969 0.26918z"/>
  <path d="m298.3 123.75-0.61176-0.10604v-0.50572h1.2317q0.1713 0 0.5302-0.0163 0.47309-0.0326 0.85646-0.0326 0.84831 0 1.3377 0.21207 0.49757 0.20392 0.70149 0.59545 0.21207 0.38337 0.21207 0.97881 0 1.0278-0.64438 1.5987-0.63623 0.57098-1.77 0.57098-0.44862 0-0.64438-0.0245v1.6069l1.093 0.0816v0.4894h-2.9364v-0.4894l0.64439-0.0816zm1.1909 2.7488q0.18761 0.0408 0.63623 0.0408 0.5465 0 0.87278-0.37521 0.33442-0.38337 0.33442-1.2643 0-0.68517-0.3018-0.99512-0.29364-0.31812-0.9054-0.31812-0.22839 0-0.47309 0.0326-0.1142 0.0163-0.16314 0.0163z"/>
  <path d="m305.14 129.29q-0.44047 0-0.79121-0.0734t-0.78305-0.19577q-0.28549-0.0816-0.38337-0.0897l0.0734-1.509h0.6607l0.17945 1.0522q0.10604 0.11419 0.37521 0.20392 0.27733 0.0897 0.62808 0.0897 0.5465 0 0.81567-0.23654 0.27734-0.24471 0.27734-0.67702 0-0.28549-0.16314-0.48941-0.16314-0.21207-0.44862-0.37521-0.28549-0.17129-0.78306-0.39152-0.67701-0.30996-1.1256-0.73411-0.44047-0.43231-0.44047-1.1664 0-0.45678 0.23655-0.82383 0.23654-0.37521 0.70148-0.58729 0.4731-0.22023 1.1501-0.22023 0.39968 0 0.70148 0.0571 0.30996 0.0571 0.66886 0.15498 0.21208 0.0571 0.31811 0.0734l-0.0489 1.4274h-0.65254l-0.17129-1.0033q-0.0734-0.0734-0.29365-0.13867-0.22023-0.0734-0.4894-0.0734-0.48941 0-0.74227 0.22839-0.24471 0.22023-0.24471 0.59545 0 0.3018 0.17945 0.52203 0.18761 0.22023 0.44863 0.37521 0.26101 0.14683 0.82383 0.42416 0.45678 0.22023 0.78305 0.43231 0.32628 0.21207 0.56282 0.55466 0.23655 0.33443 0.23655 0.79121 0 0.44862-0.22839 0.85646-0.22023 0.40784-0.73411 0.67701-0.50572 0.26918-1.2969 0.26918zm0.28549-7.3574 1.0685-0.75042 0.39152 0.31811-1.093 1.1256h-0.73411l-1.1093-1.1256 0.40784-0.31811z"/>
  <path d="m310.78 129.29q-0.89724 0-1.5498-0.39153-0.64438-0.39968-0.97881-1.093t-0.33443-1.5661q0-1.0033 0.38337-1.7211 0.39152-0.7178 1.1012-1.0849 0.70964-0.36705 1.6558-0.36705 0.88909 0 1.9984 0.25286l-0.0897 1.5172h-0.82383l-0.22024-1.0441q-0.0816-0.0816-0.30995-0.14682-0.2284-0.0734-0.59545-0.0734-0.79937 0-1.2562 0.65254-0.45678 0.64439-0.45678 1.8679 0 1.199 0.39153 1.9413 0.39153 0.73411 1.1909 0.73411 0.32627 0 0.61176-0.0816t0.43231-0.21207v-1.7537l-0.86462-0.0816v-0.5465h2.4797v0.5465l-0.43231 0.0734v2.1616q-0.17129 8e-3 -0.61991 0.13867-0.52204 0.13866-0.89725 0.20392-0.36705 0.0734-0.81568 0.0734z"/>
  <path d="m316.61 123.75-0.61176-0.10604v-0.50572h1.2317q0.17129 0 0.53019-0.0163 0.47309-0.0326 0.85646-0.0326 0.84831 0 1.3377 0.21207 0.49757 0.20392 0.70149 0.59545 0.21207 0.38337 0.21207 0.97881 0 1.0278-0.64438 1.5987-0.63623 0.57098-1.77 0.57098-0.44862 0-0.64438-0.0245v1.6069l1.093 0.0816v0.4894h-2.9364v-0.4894l0.64439-0.0816zm1.1909 2.7488q0.18761 0.0408 0.63623 0.0408 0.54651 0 0.87278-0.37521 0.33443-0.38337 0.33443-1.2643 0-0.68517-0.30181-0.99512-0.29364-0.31812-0.9054-0.31812-0.22839 0-0.47309 0.0326-0.1142 0.0163-0.16314 0.0163z"/>
  <path d="m321.35 128.71 0.64439-0.0816v-4.8778l-0.61176-0.1142v-0.49756h1.1827q0.15498 0 0.34259-8e-3 0.1876-8e-3 0.28548-0.0163 0.42416-0.0326 0.70149-0.0326 0.84015 0 1.3459 0.17129 0.50572 0.1713 0.73411 0.52204t0.22839 0.92171q0 0.56282-0.3018 1.0441t-0.87278 0.6607q0.32627 0.13867 0.57913 0.50572 0.25286 0.36706 0.53835 0.95435 0.20392 0.39968 0.30996 0.57913 0.11419 0.17129 0.22023 0.19576l0.26918 0.0816v0.48125h-1.3867q-0.13051 0-0.27733-0.26101-0.13866-0.26918-0.36705-0.84015-0.26918-0.66886-0.46494-1.0441-0.19576-0.37522-0.416-0.46494h-0.84015v2.0392l0.75043 0.0816v0.4894h-2.5939zm2.5939-2.6183q0.46494 0 0.72595-0.33443 0.26102-0.33443 0.26102-1.0033 0-0.59544-0.26102-0.88093-0.25286-0.28549-0.88093-0.28549-0.22839 0-0.39153 0.0245-0.15498 0.0163-0.20392 0.0163v2.447q0.0979 0.0163 0.4731 0.0163z"/>
  <path d="m329.81 129.29q-1.3296 0-1.9902-0.832-0.6607-0.83199-0.6607-2.2676 0-0.93803 0.34258-1.6477 0.35074-0.70965 0.97882-1.093 0.62807-0.38337 1.4438-0.38337 1.3459 0 2.0147 0.79936 0.67702 0.79121 0.67702 2.2186 0 0.94619-0.3589 1.6803-0.35074 0.72595-0.98697 1.1256-0.63623 0.39969-1.4601 0.39969zm0.0816-5.7261q-0.66886 0-1.0441 0.6607t-0.37521 1.9576q0 1.2806 0.3589 1.9495 0.36705 0.6607 1.0441 0.6607 0.6607 0 1.0359-0.69332 0.37521-0.70149 0.37521-2.0147 0-1.2725-0.3589-1.8924-0.3589-0.62807-1.0359-0.62807z"/>
  <path d="m337.2 129.29q-0.44047 0-0.79121-0.0734t-0.78305-0.19577q-0.28549-0.0816-0.38337-0.0897l0.0734-1.509h0.6607l0.17945 1.0522q0.10604 0.11419 0.37521 0.20392 0.27733 0.0897 0.62807 0.0897 0.54651 0 0.81568-0.23654 0.27733-0.24471 0.27733-0.67702 0-0.28549-0.16313-0.48941-0.16314-0.21207-0.44863-0.37521-0.28549-0.17129-0.78305-0.39152-0.67701-0.30996-1.1256-0.73411-0.44046-0.43231-0.44046-1.1664 0-0.45678 0.23654-0.82383 0.23655-0.37521 0.70149-0.58729 0.47309-0.22023 1.1501-0.22023 0.39968 0 0.70148 0.0571 0.30996 0.0571 0.66886 0.15498 0.21207 0.0571 0.31811 0.0734l-0.0489 1.4274h-0.65254l-0.1713-1.0033q-0.0734-0.0734-0.29364-0.13867-0.22023-0.0734-0.48941-0.0734-0.4894 0-0.74227 0.22839-0.2447 0.22023-0.2447 0.59545 0 0.3018 0.17945 0.52203 0.18761 0.22023 0.44862 0.37521 0.26102 0.14683 0.82384 0.42416 0.45678 0.22023 0.78305 0.43231 0.32627 0.21207 0.56282 0.55466 0.23655 0.33443 0.23655 0.79121 0 0.44862-0.22839 0.85646-0.22024 0.40784-0.73411 0.67701-0.50573 0.26918-1.2969 0.26918zm0.28548-7.3574 1.0685-0.75042 0.39153 0.31811-1.093 1.1256h-0.73411l-1.1093-1.1256 0.40784-0.31811z"/>
  <path d="m344.35 129.2q-0.12235 0-0.31812-0.30996-0.19576-0.31811-0.5465-1.0033-0.3018-0.58729-0.50572-0.94619t-0.39153-0.59544l-0.72595 0.83199v1.4519l0.70148 0.0897v0.48125h-2.5368v-0.4894l0.64439-0.0816v-4.8778l-0.63623-0.10604v-0.50572h2.4552v0.50572l-0.62807 0.10604v2.6591l2.1452-2.6591-0.66885-0.10604v-0.50572h2.2023v0.50572l-0.67701 0.10604-1.5824 1.7782q0.28549 0.26101 0.6036 0.74227 0.31812 0.47309 0.7749 1.2398 0.33442 0.56282 0.50572 0.82383 0.17129 0.25286 0.26101 0.29365l0.38337 0.0897v0.48125z"/>
  <path d="m348.68 129.29q-1.3296 0-1.9903-0.832-0.6607-0.83199-0.6607-2.2676 0-0.93803 0.34259-1.6477 0.35074-0.70965 0.97881-1.093 0.62808-0.38337 1.4438-0.38337 1.3459 0 2.0147 0.79936 0.67701 0.79121 0.67701 2.2186 0 0.94619-0.35889 1.6803-0.35075 0.72595-0.98698 1.1256-0.63622 0.39969-1.4601 0.39969zm0.0816-5.7261q-0.66886 0-1.0441 0.6607t-0.37521 1.9576q0 1.2806 0.35889 1.9495 0.36706 0.6607 1.0441 0.6607 0.6607 0 1.0359-0.69332 0.37521-0.70149 0.37521-2.0147 0-1.2725-0.3589-1.8924-0.3589-0.62807-1.0359-0.62807z"/>
  <path d="m352.69 123.75-0.62808-0.10604v-0.50572h2.6102v0.50572l-0.78305 0.10604v4.8696l1.7456-0.0734 0.51388-1.5253 0.6607 0.0897-0.25286 2.0881h-4.5107v-0.4894l0.64439-0.0816z"/>
  <path d="m357.9 123.75-0.64439-0.10604v-0.50572h1.8516l2.4307 3.6706 0.45678 0.92988v-3.9887l-0.70149-0.10604v-0.50572h2.0229v0.50572l-0.62808 0.10604v5.4487h-0.98697l-2.5368-3.8582-0.57097-1.0767v4.3639l0.82383 0.0816v0.4894h-2.1616v-0.4894l0.64439-0.0816z"/>
  <path d="m364.54 123.75-0.69333-0.10604v-0.50572h2.6102v0.50572l-0.7178 0.10604v4.8778l0.7178 0.0897v0.48125h-2.6102v-0.4894l0.69333-0.0816zm-0.0489-1.3459 1.0604-1.2154 0.82383 0.51388q-0.27733 0.31812-0.68517 0.61176-0.39968 0.28549-0.68517 0.39968z"/>
  <path d="m369.08 128.71 0.64439-0.0816v-4.8778l-0.61176-0.1142v-0.49756h1.1827q0.15498 0 0.34258-8e-3 0.18761-8e-3 0.28549-0.0163 0.42415-0.0326 0.70148-0.0326 0.84015 0 1.3459 0.17129 0.50572 0.1713 0.73411 0.52204t0.22839 0.92171q0 0.56282-0.3018 1.0441t-0.87277 0.6607q0.32627 0.13867 0.57913 0.50572 0.25286 0.36706 0.53835 0.95435 0.20392 0.39968 0.30996 0.57913 0.11419 0.17129 0.22023 0.19576l0.26917 0.0816v0.48125h-1.3866q-0.13051 0-0.27733-0.26101-0.13867-0.26918-0.36706-0.84015-0.26917-0.66886-0.46494-1.0441-0.19576-0.37522-0.41599-0.46494h-0.84015v2.0392l0.75042 0.0816v0.4894h-2.5939zm2.5939-2.6183q0.46494 0 0.72596-0.33443t0.26102-1.0033q0-0.59544-0.26102-0.88093-0.25286-0.28549-0.88094-0.28549-0.22839 0-0.39152 0.0245-0.15498 0.0163-0.20392 0.0163v2.447q0.0979 0.0163 0.47309 0.0163z"/>
  <path d="m377.54 129.29q-1.3296 0-1.9902-0.832-0.6607-0.83199-0.6607-2.2676 0-0.93803 0.34258-1.6477 0.35074-0.70965 0.97882-1.093 0.62807-0.38337 1.4438-0.38337 1.3459 0 2.0147 0.79936 0.67701 0.79121 0.67701 2.2186 0 0.94619-0.3589 1.6803-0.35074 0.72595-0.98697 1.1256-0.63623 0.39969-1.4601 0.39969zm0.0816-5.7261q-0.66886 0-1.0441 0.6607t-0.37521 1.9576q0 1.2806 0.3589 1.9495 0.36705 0.6607 1.0441 0.6607 0.6607 0 1.0359-0.69332 0.37521-0.70149 0.37521-2.0147 0-1.2725-0.3589-1.8924-0.3589-0.62807-1.0359-0.62807z"/>
  <path d="m385.23 129.2q-0.12235 0-0.31811-0.30996-0.19576-0.31811-0.54651-1.0033-0.3018-0.58729-0.50572-0.94619t-0.39152-0.59544l-0.72596 0.83199v1.4519l0.70149 0.0897v0.48125h-2.5368v-0.4894l0.64438-0.0816v-4.8778l-0.63623-0.10604v-0.50572h2.4552v0.50572l-0.62808 0.10604v2.6591l2.1452-2.6591-0.66886-0.10604v-0.50572h2.2023v0.50572l-0.67702 0.10604-1.5824 1.7782q0.28549 0.26101 0.60361 0.74227 0.31811 0.47309 0.77489 1.2398 0.33443 0.56282 0.50572 0.82383 0.1713 0.25286 0.26102 0.29365l0.38337 0.0897v0.48125z"/>
  <path d="m388.91 128.76q1.1338-0.66886 1.8598-1.4764 0.72595-0.80753 0.72595-1.558 0-0.39968-0.25286-0.63623-0.2447-0.2447-0.69333-0.2447-0.42415 0-0.71779 0.16313-0.28549 0.15498-0.56282 0.40784l-0.30996-0.44862q0.16314-0.20392 0.46494-0.416 0.30996-0.21207 0.71779-0.35074 0.40784-0.14682 0.82384-0.14682 0.59545 0 0.99513 0.20392 0.40784 0.20392 0.6036 0.53835 0.19576 0.33442 0.19576 0.74226 0 0.78306-0.75042 1.5743-0.75043 0.79121-1.9087 1.4519l2.3655-0.22023 0.30996-0.68517 0.51388 0.10604-0.23655 1.4356h-3.9724z"/>
  <path d="m396.14 129.28q-1.0441 0-1.5987-0.69333-0.5465-0.70148-0.5465-1.9005 0-0.8483 0.31811-1.4356 0.31812-0.59545 0.84015-0.88909 0.53019-0.30181 1.1746-0.30181 1.0522 0 1.5824 0.66886 0.53019 0.6607 0.53019 1.8761 0 0.84015-0.30996 1.4519-0.3018 0.6036-0.82384 0.91356-0.52203 0.30996-1.1664 0.30996zm0.0816-0.48941q0.51388 0 0.75042-0.52203 0.24471-0.53019 0.24471-1.5743 0-1.1093-0.22839-1.6232-0.22023-0.52204-0.75858-0.52204-1.0114 0-1.0114 2.0474 0 1.093 0.23655 1.6477 0.24471 0.5465 0.76674 0.5465z"/>
  <path d="m399.2 128.76q1.1338-0.66886 1.8598-1.4764 0.72596-0.80753 0.72596-1.558 0-0.39968-0.25287-0.63623-0.2447-0.2447-0.69332-0.2447-0.42416 0-0.7178 0.16313-0.28549 0.15498-0.56282 0.40784l-0.30996-0.44862q0.16314-0.20392 0.46494-0.416 0.30996-0.21207 0.7178-0.35074 0.40784-0.14682 0.82383-0.14682 0.59545 0 0.99513 0.20392 0.40784 0.20392 0.6036 0.53835 0.19577 0.33442 0.19577 0.74226 0 0.78306-0.75043 1.5743-0.75042 0.79121-1.9087 1.4519l2.3655-0.22023 0.30996-0.68517 0.51388 0.10604-0.23655 1.4356h-3.9724z"/>
  <path d="m405.21 130.5q-0.23655 0-0.52204-0.0408-0.27733-0.0326-0.45678-0.0816v-0.60361q0.34259 0.10604 0.73411 0.10604 0.57098 0 0.98698-0.1876 0.42415-0.18761 0.64438-0.50572 0.22024-0.31812 0.22024-0.70149 0-0.52203-0.30996-0.80752t-0.92172-0.3018l-0.48941 0.12235-0.17129-0.49756q0.33443-0.0571 0.6607-0.20392 0.47309-0.21208 0.73411-0.53019 0.26102-0.32628 0.26102-0.69333 0-0.40784-0.25286-0.59545-0.24471-0.1876-0.62808-0.1876-0.35889 0-0.67701 0.12235-0.30996 0.12235-0.53019 0.3018l-0.28549-0.49757q0.23655-0.22839 0.76674-0.44862 0.53835-0.22023 1.093-0.22023 0.7749 0 1.2562 0.33443 0.4894 0.32627 0.4894 0.99512 0 0.58729-0.45678 1.0359-0.45678 0.44862-1.1175 0.68517 0.0816-8e-3 0.24471-8e-3 0.72595 0 1.1746 0.36706 0.45678 0.36705 0.45678 0.97881 8e-3 0.58729-0.35074 1.0522-0.35074 0.47309-1.0114 0.74226-0.6607 0.26918-1.5416 0.26918z"/>
  <path d="m409.55 130.64h-0.82384l2.1371-7.8142h0.82384z"/>
  <path d="m412.27 128.76q1.1338-0.66886 1.8598-1.4764 0.72595-0.80753 0.72595-1.558 0-0.39968-0.25286-0.63623-0.2447-0.2447-0.69332-0.2447-0.42416 0-0.7178 0.16313-0.28549 0.15498-0.56282 0.40784l-0.30996-0.44862q0.16314-0.20392 0.46494-0.416 0.30996-0.21207 0.7178-0.35074 0.40784-0.14682 0.82383-0.14682 0.59545 0 0.99513 0.20392 0.40784 0.20392 0.6036 0.53835 0.19577 0.33442 0.19577 0.74226 0 0.78306-0.75043 1.5743-0.75042 0.79121-1.9087 1.4519l2.3655-0.22023 0.30996-0.68517 0.51388 0.10604-0.23655 1.4356h-3.9724z"/>
  <path d="m419.5 129.28q-1.0441 0-1.5987-0.69333-0.5465-0.70148-0.5465-1.9005 0-0.8483 0.31811-1.4356 0.31812-0.59545 0.84015-0.88909 0.53019-0.30181 1.1746-0.30181 1.0522 0 1.5824 0.66886 0.53019 0.6607 0.53019 1.8761 0 0.84015-0.30996 1.4519-0.3018 0.6036-0.82383 0.91356-0.52204 0.30996-1.1664 0.30996zm0.0816-0.48941q0.51388 0 0.75043-0.52203 0.2447-0.53019 0.2447-1.5743 0-1.1093-0.22839-1.6232-0.22023-0.52204-0.75858-0.52204-1.0114 0-1.0114 2.0474 0 1.093 0.23654 1.6477 0.24471 0.5465 0.76674 0.5465z"/>
  <path d="m422.56 128.76q1.1338-0.66886 1.8597-1.4764 0.72596-0.80753 0.72596-1.558 0-0.39968-0.25286-0.63623-0.24471-0.2447-0.69333-0.2447-0.42415 0-0.7178 0.16313-0.28548 0.15498-0.56282 0.40784l-0.30995-0.44862q0.16313-0.20392 0.46493-0.416 0.30996-0.21207 0.7178-0.35074 0.40784-0.14682 0.82384-0.14682 0.59544 0 0.99513 0.20392 0.40783 0.20392 0.6036 0.53835 0.19576 0.33442 0.19576 0.74226 0 0.78306-0.75042 1.5743-0.75043 0.79121-1.9087 1.4519l2.3655-0.22023 0.30995-0.68517 0.51388 0.10604-0.23654 1.4356h-3.9724z"/>
  <path d="m430.39 129.2h-2.6918l-0.26101-0.42415q0.70148-1.3296 2.3165-5.1306h0.2447l0.92172 0.47309-2.08 3.9642-0.3589 0.53019 1.9168-0.11419 0.0816-1.5253 0.88909-0.0734v1.5335l1.0441-0.0571v0.82383h-1.0441v1.3051h-0.97881z"/>
 </g>
 <g stroke-width=".54241" aria-label="František Vojáček 2B">
  <path d="m220.79 183.6-0.53373-0.0846v-0.40355h3.5929l0.0651 1.1781h-0.52071l-0.24083-0.71598-1.4059-0.0716v1.842l0.96983-0.0195 0.12367-0.57279h0.41657v1.6533h-0.41006l-0.13018-0.5858-0.96983-0.026v1.6988l0.99587 0.0651v0.39054h-2.4539v-0.39054l0.50118-0.0651z"/>
  <path d="m224.36 187.56 0.42959-0.0521v-2.5645l-0.41657-0.11716v-0.44911l1.0089-0.13669h0.0195l0.16272 0.13018v0.14319l-0.0195 0.52723h0.0195q0.0456-0.13018 0.21479-0.31894 0.16924-0.19527 0.42308-0.33846 0.26036-0.14971 0.55977-0.14971 0.1432 0 0.24734 0.0391v0.97634q-0.19527-0.13669-0.47515-0.13669-0.47515 0-0.82663 0.25385v2.1349l0.75503 0.0586v0.38403h-2.1024z"/>
  <path d="m227.36 186.93q0-0.59231 0.59231-0.89172 0.59882-0.29941 1.5426-0.30592v-0.14971q0-0.26686-0.0586-0.41657-0.0521-0.1497-0.20178-0.2213-0.14319-0.0781-0.42308-0.0781-0.31893 0-0.57278 0.0846-0.25385 0.0781-0.52722 0.20829l-0.20178-0.41657q0.0976-0.0846 0.32545-0.20178 0.23432-0.11716 0.55325-0.20178 0.31894-0.0911 0.6574-0.0911 0.50119 0 0.78107 0.13018 0.28639 0.13017 0.41006 0.41657 0.12367 0.28639 0.12367 0.76805v1.9917h0.35148v0.3645q-0.13017 0.0325-0.371 0.0651-0.24083 0.0325-0.42308 0.0325-0.22131 0-0.29941-0.0651-0.0716-0.0651-0.0716-0.26687v-0.17574q-0.17574 0.19527-0.45562 0.35148-0.27989 0.15622-0.63137 0.15622-0.29941 0-0.55326-0.12367-0.24733-0.13018-0.39704-0.37101-0.1497-0.24734-0.1497-0.59231zm1.5166 0.54675q0.13669 0 0.31243-0.0781 0.17574-0.0846 0.30592-0.20178v-1.0675q-0.5858 0-0.8787 0.20178-0.2864 0.19527-0.2864 0.50769 0 0.31243 0.1432 0.47516 0.1497 0.16272 0.40355 0.16272z"/>
  <path d="m231.48 184.95-0.41657-0.11716v-0.44911l1.0805-0.13669h0.0195l0.16272 0.13018v0.25385l-7e-3 0.15621q0.22782-0.2148 0.59232-0.37101 0.36449-0.15621 0.7355-0.15621 0.39705 0 0.61835 0.1497 0.22781 0.1432 0.32544 0.45563 0.0976 0.31242 0.0976 0.84615v1.7965l0.39704 0.0521v0.39054h-1.6793v-0.39054l0.35148-0.0521v-1.7965q0-0.33846-0.0456-0.52722-0.0456-0.19526-0.16923-0.27988-0.11716-0.0911-0.33846-0.0911-0.37101 0-0.79409 0.31894v2.3692l0.39053 0.0586v0.39054h-1.6988v-0.39054l0.37752-0.0586z"/>
  <path d="m236.64 188.01q-0.41006 0-0.60533-0.18876t-0.19527-0.59882v-2.3888h-0.42308v-0.33846q0.0521-0.0195 0.18876-0.0651 0.13669-0.0521 0.20829-0.0846 0.11065-0.0846 0.18876-0.2929 0.0586-0.13668 0.21479-0.67692h0.52071l0.026 0.95681h0.99586v0.50118h-0.98935v1.829q0 0.36449 0.0195 0.5142 0.0195 0.1497 0.0846 0.19527 0.0651 0.039 0.22781 0.039 0.16273 0 0.33847-0.0325 0.17574-0.0391 0.2929-0.0911l0.12367 0.3645q-0.18225 0.13669-0.53373 0.24734-0.35149 0.11065-0.68344 0.11065z"/>
  <path d="m238.98 183.74q-0.23432 0-0.371-0.13668-0.13669-0.13669-0.13669-0.35148 0-0.24734 0.15621-0.41007 0.15622-0.16272 0.41657-0.16272 0.26036 0 0.39705 0.1432 0.13668 0.13669 0.13668 0.34497 0 0.26036-0.15621 0.41657t-0.4361 0.15621zm-0.34497 1.2107-0.46213-0.12367v-0.43609l1.1911-0.1432h0.013l0.18225 0.13018v3.1308l0.43609 0.0521v0.39054h-1.816v-0.39054l0.45562-0.0586z"/>
  <path d="m241.18 187.42q0.0521 0.0781 0.23432 0.1497 0.18875 0.0651 0.37751 0.0651 0.30592 0 0.45563-0.12367 0.15621-0.13017 0.15621-0.33846 0-0.21479-0.18876-0.34497-0.18876-0.13669-0.63787-0.33196l-0.18225-0.0781q-0.44912-0.18876-0.67042-0.45563-0.2213-0.26686-0.2213-0.68994 0-0.2929 0.17574-0.52071 0.17574-0.23433 0.49468-0.3645 0.31893-0.13018 0.7355-0.13018 0.30592 0 0.52072 0.0391 0.2213 0.0391 0.46213 0.10414 0.13018 0.0456 0.19527 0.0521v0.85266h-0.51421l-0.1497-0.49467q-0.0391-0.0651-0.17574-0.11716-0.13669-0.0521-0.31243-0.0521-0.26687 0-0.42959 0.11716-0.15621 0.11066-0.15621 0.31243 0 0.18225 0.11065 0.30592 0.11065 0.11716 0.24083 0.18225 0.13018 0.0651 0.48166 0.21479 0.35148 0.14971 0.57929 0.2864 0.23432 0.13668 0.38403 0.35799 0.15621 0.21479 0.15621 0.52722 0 0.48166-0.37752 0.78107-0.37751 0.29941-1.087 0.29941-0.33196 0-0.59882-0.0586-0.26036-0.0586-0.60533-0.15622l-0.1432-0.0456v-0.85918h0.54024zm0.67041-4.2503 0.9503-0.8787 0.30592 0.24734-0.96982 1.2757h-0.56628l-0.96332-1.2757 0.31243-0.24083z"/>
  <path d="m245.48 188.02q-0.85918 0-1.2823-0.50119-0.41657-0.50769-0.41657-1.3799 0-0.5858 0.2148-1.0154 0.2213-0.42959 0.61835-0.6574 0.39704-0.22781 0.91775-0.22781 0.65089 0 1.0024 0.34497 0.35148 0.33847 0.3645 0.96983 0 0.42959-0.0521 0.63787h-2.1154q0.026 0.59231 0.27988 0.92427 0.25385 0.32544 0.72249 0.32544 0.25385 0 0.52071-0.0846 0.27337-0.0846 0.42959-0.20178l0.16272 0.35799q-0.17574 0.18876-0.57278 0.35148-0.39054 0.15622-0.79409 0.15622zm0.5077-2.2195q0.013-0.18225 0.013-0.27988 0-0.86569-0.57929-0.86569-0.31894 0-0.49468 0.25385t-0.19526 0.89172z"/>
  <path d="m247.72 183.19-0.46864-0.0846v-0.35148l1.1976-0.1432h0.013l0.17574 0.12367v3.0917l-0.0195 0.34498 1.3278-1.3929-0.48166-0.0716v-0.37101h1.6988v0.37101l-0.52723 0.0846-0.80059 0.76805 1.1391 1.9462 0.35799 0.0521v0.39054h-1.7184v-0.39054l0.33196-0.0586-0.74202-1.3734-0.5858 0.59232 0.013 0.33195v0.44911l0.41006 0.0586v0.39054h-1.6988v-0.39054l0.37752-0.0586z"/>
  <path d="m252.65 183.11h1.9787v0.40355l-0.55326 0.0846 0.96983 2.916 0.18876 0.6574 0.16272-0.66391 0.91125-2.9095-0.5142-0.0846v-0.40355h1.5752v0.40355l-0.41657 0.0846-1.497 4.3935h-0.77456l-1.6402-4.3935-0.39054-0.0846z"/>
  <path d="m257.53 186.15q0-0.61184 0.24083-1.0414 0.24733-0.42959 0.65739-0.64439 0.41007-0.2213 0.89173-0.2213 0.82012 0 1.2627 0.5077 0.44912 0.50118 0.44912 1.3669 0 0.61834-0.24734 1.0544-0.24083 0.42959-0.65089 0.64438-0.40355 0.20829-0.89172 0.20829-0.81362 0-1.2627-0.50119-0.44911-0.50769-0.44911-1.3734zm1.7639 1.4515q0.73551 0 0.73551-1.4189 0-0.74202-0.17574-1.126-0.17574-0.39053-0.57279-0.39053-0.75503 0-0.75503 1.4189 0 0.74202 0.18225 1.1326 0.18876 0.38403 0.5858 0.38403z"/>
  <path d="m262.41 183.74q-0.23432 0-0.371-0.13668-0.13018-0.13669-0.13018-0.35148 0-0.24734 0.15621-0.41007 0.15622-0.16272 0.41657-0.16272 0.26036 0 0.39054 0.1432 0.13668 0.13669 0.13668 0.34497 0 0.26036-0.15621 0.41657-0.1497 0.15621-0.4361 0.15621zm-0.83314 0.6509 1.1781-0.1432h0.013l0.17575 0.13018v3.5148q0 0.50769-0.18876 0.87219-0.18876 0.37101-0.48166 0.55977-0.28639 0.19527-0.5858 0.20828-0.32545 0-0.39705-0.026l-0.0456-0.37101q0.16923 0 0.33846-0.0716 0.24734-0.10414 0.35148-0.4426 0.11066-0.33847 0.11066-0.91125l-7e-3 -2.7468-0.46214-0.12367z"/>
  <path d="m263.7 186.93q0-0.59231 0.59231-0.89172 0.59882-0.29941 1.5426-0.30592v-0.14971q0-0.26686-0.0586-0.41657-0.0521-0.1497-0.20177-0.2213-0.1432-0.0781-0.42308-0.0781-0.31894 0-0.57279 0.0846-0.25384 0.0781-0.52722 0.20829l-0.20178-0.41657q0.0976-0.0846 0.32545-0.20178 0.23432-0.11716 0.55326-0.20178 0.31893-0.0911 0.6574-0.0911 0.50118 0 0.78107 0.13018 0.28639 0.13017 0.41006 0.41657 0.12367 0.28639 0.12367 0.76805v1.9917h0.35148v0.3645q-0.13018 0.0325-0.37101 0.0651-0.24083 0.0325-0.42308 0.0325-0.2213 0-0.29941-0.0651-0.0716-0.0651-0.0716-0.26687v-0.17574q-0.17574 0.19527-0.45562 0.35148-0.27988 0.15622-0.63136 0.15622-0.29941 0-0.55326-0.12367-0.24734-0.13018-0.39705-0.37101-0.1497-0.24734-0.1497-0.59231zm1.5166 0.54675q0.13668 0 0.31242-0.0781 0.17574-0.0846 0.30592-0.20178v-1.0675q-0.5858 0-0.8787 0.20178-0.28639 0.19527-0.28639 0.50769 0 0.31243 0.14319 0.47516 0.14971 0.16272 0.40356 0.16272zm-0.54024-3.9965 1.1-1.3539 0.57279 0.50119q-0.15622 0.26036-0.61184 0.63787-0.44912 0.37752-0.729 0.49468z"/>
  <path d="m267.37 186.16q0-0.55977 0.2213-0.99586 0.22781-0.4361 0.64438-0.67693 0.42308-0.24734 0.98285-0.24734 0.26035 0 0.44911 0.0391t0.42308 0.10415l0.18876 0.0521-0.0391 1.113h-0.56628l-0.16272-0.71598q-0.0391-0.16923-0.38403-0.16923-0.3645 0-0.57278 0.31894-0.20178 0.31893-0.20829 0.99586 0 0.71598 0.24734 1.1 0.24734 0.37751 0.6574 0.37751 0.49468 0 0.91125-0.26686l0.1497 0.33846q-0.16923 0.18225-0.52071 0.33846-0.34497 0.15622-0.74852 0.15622-0.83314 0-1.2562-0.51421-0.41657-0.5142-0.41657-1.3473zm1.6728-2.9941 0.9503-0.8787 0.30592 0.24734-0.96983 1.2757h-0.56628l-0.96332-1.2757 0.31243-0.24083z"/>
  <path d="m272.47 188.02q-0.85917 0-1.2822-0.50119-0.41657-0.50769-0.41657-1.3799 0-0.5858 0.21479-1.0154 0.22131-0.42959 0.61835-0.6574t0.91776-0.22781q0.65089 0 1.0024 0.34497 0.35148 0.33847 0.3645 0.96983 0 0.42959-0.0521 0.63787h-2.1154q0.026 0.59231 0.27988 0.92427 0.25385 0.32544 0.72249 0.32544 0.25385 0 0.52071-0.0846 0.27338-0.0846 0.42959-0.20178l0.16272 0.35799q-0.17574 0.18876-0.57278 0.35148-0.39053 0.15622-0.79409 0.15622zm0.5077-2.2195q0.013-0.18225 0.013-0.27988 0-0.86569-0.5793-0.86569-0.31893 0-0.49467 0.25385t-0.19527 0.89172z"/>
  <path d="m274.71 183.19-0.46864-0.0846v-0.35148l1.1976-0.1432h0.013l0.17574 0.12367v3.0917l-0.0195 0.34498 1.3278-1.3929-0.48166-0.0716v-0.37101h1.6988v0.37101l-0.52722 0.0846-0.8006 0.76805 1.1391 1.9462 0.35799 0.0521v0.39054h-1.7184v-0.39054l0.33195-0.0586-0.74202-1.3734-0.5858 0.59232 0.013 0.33195v0.44911l0.41006 0.0586v0.39054h-1.6988v-0.39054l0.37751-0.0586z"/>
  <path d="m280.09 187.73q0.60533-0.33847 1.126-0.79409 0.52722-0.46213 0.83965-0.95681 0.31893-0.49468 0.31893-0.91125 0-0.38402-0.22781-0.61184-0.22781-0.22781-0.65089-0.22781-0.39053 0-0.68343 0.16273-0.2864 0.15621-0.51421 0.37751l-0.18225-0.24734q0.24083-0.26686 0.64438-0.47515 0.40356-0.21479 0.87871-0.21479 0.4426 0 0.74201 0.16923 0.30592 0.16272 0.44912 0.4361 0.1497 0.26686 0.1497 0.57929 0 0.66391-0.63787 1.3799-0.63136 0.70947-1.5556 1.2497l2.1024-0.13669 0.21479-0.56627 0.28639 0.0586-0.15621 0.9503h-3.0657z"/>
  <path d="m284.51 183.46-0.54675-0.0716v-0.27988h0.81361q0.2148 0 0.55326-0.026 0.31243-0.026 0.46213-0.026 0.84616 0 1.2237 0.27988 0.38402 0.27988 0.38402 0.81361 0 0.45563-0.25385 0.79409-0.24733 0.33196-0.70947 0.42308 0.61184-0.0195 0.95681 0.2929 0.35148 0.31243 0.35148 0.83965 0 0.65089-0.46213 1.0675-0.45562 0.41657-1.497 0.41657-0.12367 0-0.39704-0.013-0.33846-0.026-0.63787-0.026h-0.8006v-0.27988l0.55977-0.0586zm0.53373 1.7965q0.10414 7e-3 0.41006 7e-3h0.39053q0.49468 0 0.75504-0.25385 0.26035-0.25385 0.26035-0.73551 0-0.47515-0.26035-0.69645-0.25385-0.2213-0.87871-0.2213-0.23432 0-0.48166 0.026-0.15621 0.013-0.19526 0.013zm0 2.3627q0.16923 0.0521 0.7355 0.0521 0.729 0 1.0544-0.27338 0.32544-0.27988 0.32544-0.8006 0-0.52071-0.27988-0.75503-0.27988-0.24083-0.90474-0.24083h-0.48166q-0.35148 0-0.44911 7e-3z"/>
 </g>
</svg>
